<svg xmlns="http://www.w3.org/2000/svg">
    <symbol width="100%" height="100%" viewBox="-10 -15 330 330" id="twitter">
        <path d="M302.973,57.388c-4.87,2.16-9.877,3.983-14.993,5.463c6.057-6.85,10.675-14.91,13.494-23.73
        c0.632-1.977-0.023-4.141-1.648-5.434c-1.623-1.294-3.878-1.449-5.665-0.39c-10.865,6.444-22.587,11.075-34.878,13.783
        c-12.381-12.098-29.197-18.983-46.581-18.983c-36.695,0-66.549,29.853-66.549,66.547c0,2.89,0.183,5.764,0.545,8.598
        C101.163,99.244,58.83,76.863,29.76,41.204c-1.036-1.271-2.632-1.956-4.266-1.825c-1.635,0.128-3.104,1.05-3.93,2.467
        c-5.896,10.117-9.013,21.688-9.013,33.461c0,16.035,5.725,31.249,15.838,43.137c-3.075-1.065-6.059-2.396-8.907-3.977
        c-1.529-0.851-3.395-0.838-4.914,0.033c-1.52,0.871-2.473,2.473-2.513,4.224c-0.007,0.295-0.007,0.59-0.007,0.889
        c0,23.935,12.882,45.484,32.577,57.229c-1.692-0.169-3.383-0.414-5.063-0.735c-1.732-0.331-3.513,0.276-4.681,1.597
        c-1.17,1.32-1.557,3.16-1.018,4.84c7.29,22.76,26.059,39.501,48.749,44.605c-18.819,11.787-40.34,17.961-62.932,17.961
        c-4.714,0-9.455-0.277-14.095-0.826c-2.305-0.274-4.509,1.087-5.294,3.279c-0.785,2.193,0.047,4.638,2.008,5.895
        c29.023,18.609,62.582,28.445,97.047,28.445c67.754,0,110.139-31.95,133.764-58.753c29.46-33.421,46.356-77.658,46.356-121.367
        c0-1.826-0.028-3.67-0.084-5.508c11.623-8.757,21.63-19.355,29.773-31.536c1.237-1.85,1.103-4.295-0.33-5.998
        C307.394,57.037,305.009,56.486,302.973,57.388z"/>
    </symbol>

    <symbol width="100%" height="100%" viewBox="2 2 28 28" id="github">
        <path fill-rule="evenodd" d="M 16 4 C 9.371094 4 4 9.371094 4 16 C 4 21.300781 7.4375 25.800781 12.207031 27.386719 C 12.808594 27.496094 13.027344 27.128906 13.027344 26.808594 C 13.027344 26.523438 13.015625 25.769531 13.011719 24.769531 C 9.671875 25.492188 8.96875 23.160156 8.96875 23.160156 C 8.421875 21.773438 7.636719 21.402344 7.636719 21.402344 C 6.546875 20.660156 7.71875 20.675781 7.71875 20.675781 C 8.921875 20.761719 9.554688 21.910156 9.554688 21.910156 C 10.625 23.746094 12.363281 23.214844 13.046875 22.910156 C 13.15625 22.132813 13.46875 21.605469 13.808594 21.304688 C 11.144531 21.003906 8.34375 19.972656 8.34375 15.375 C 8.34375 14.0625 8.8125 12.992188 9.578125 12.152344 C 9.457031 11.851563 9.042969 10.628906 9.695313 8.976563 C 9.695313 8.976563 10.703125 8.65625 12.996094 10.207031 C 13.953125 9.941406 14.980469 9.808594 16 9.804688 C 17.019531 9.808594 18.046875 9.941406 19.003906 10.207031 C 21.296875 8.65625 22.300781 8.976563 22.300781 8.976563 C 22.957031 10.628906 22.546875 11.851563 22.421875 12.152344 C 23.191406 12.992188 23.652344 14.0625 23.652344 15.375 C 23.652344 19.984375 20.847656 20.996094 18.175781 21.296875 C 18.605469 21.664063 18.988281 22.398438 18.988281 23.515625 C 18.988281 25.121094 18.976563 26.414063 18.976563 26.808594 C 18.976563 27.128906 19.191406 27.503906 19.800781 27.386719 C 24.566406 25.796875 28 21.300781 28 16 C 28 9.371094 22.628906 4 16 4 Z"/>
    </symbol>

    <symbol width="100%" height="100%" viewBox="-4 -3 24 24" id="paypal">
        <path d='M4.328 16.127l-.011.07a.899.899 0 0 1-.887.744H.9a.892.892 0 0 1-.88-1.04L2.57.745A.892.892 0 0 1 3.45 0h6.92a4.141 4.141 0 0 1 4.142 4.141c0 .273-.017.54-.05.804a3.629 3.629 0 0 1 1.53 2.962 5.722 5.722 0 0 1-5.72 5.722h-.583c-.653 0-1.211.472-1.32 1.117l-.314 1.87.314-1.87a1.339 1.339 0 0 1 1.32-1.117h.582a5.722 5.722 0 0 0 5.722-5.722 3.629 3.629 0 0 0-1.53-2.962 6.52 6.52 0 0 1-6.47 5.716H6.06a.969.969 0 0 0-.93.701l-1.155 6.862c-.08.48.289.916.775.916h2.214a.786.786 0 0 0 .775-.655l.315-1.87-.315 1.87a.786.786 0 0 1-.775.655H4.751a.782.782 0 0 1-.6-.278.782.782 0 0 1-.175-.638l.352-2.097z' /><path d='M15.45 5.995c.365.567.578 1.242.578 1.967a5.722 5.722 0 0 1-5.722 5.722h-.581c-.654 0-1.212.472-1.32 1.117l-.63 3.739a.786.786 0 0 1-.774.655H4.973l1.15-6.833c.118-.41.495-.7.93-.7h1.932a6.52 6.52 0 0 0 6.464-5.667zm-10.477 13.2h-.187a.786.786 0 0 1-.775-.916l.057-.338h.355a.899.899 0 0 0 .886-.743l.012-.07-.348 2.067z'/>
    </symbol>

    <symbol width="100%" height="100%" viewBox="-4 -3 37 37" id="spotify">
        <path d="M16 0c-8.803 0-16 7.197-16 16s7.197 16 16 16c8.803 0 16-7.197 16-16s-7.12-16-16-16zM23.36 23.12c-0.319 0.479-0.881 0.64-1.36 0.317-3.76-2.317-8.479-2.797-14.083-1.52-0.557 0.165-1.037-0.235-1.199-0.72-0.156-0.557 0.24-1.036 0.719-1.197 6.084-1.36 11.365-0.803 15.521 1.76 0.563 0.24 0.64 0.88 0.401 1.36zM25.281 18.719c-0.401 0.563-1.12 0.803-1.683 0.401-4.317-2.641-10.88-3.437-15.916-1.839-0.641 0.156-1.365-0.161-1.521-0.803-0.161-0.64 0.156-1.359 0.797-1.52 5.844-1.761 13.041-0.876 18 2.161 0.484 0.24 0.724 1.041 0.323 1.599zM25.443 14.24c-5.125-3.043-13.683-3.36-18.563-1.839-0.801 0.239-1.599-0.24-1.839-0.964-0.239-0.797 0.24-1.599 0.959-1.839 5.683-1.681 15.041-1.359 20.964 2.161 0.719 0.401 0.957 1.36 0.557 2.079-0.401 0.563-1.36 0.801-2.079 0.401z"/>
    </symbol>
</svg>